<svg height="512pt" preserveAspectRatio="xMidYMid meet" viewBox="0 0 512 512" width="512pt" xmlns="http://www.w3.org/2000/svg"><g transform="matrix(.003922 0 0 -.003922 0 512)"><path d="m70626 116958c-76-80-2298-208-4939-287-5202-154-5252-163-5252-960 0-296-283-1245-628-2109-1971-4926-2266-19603-466-23175 3186-6323 12252-7242 16270-1648 1969 2741 2038 3103 2024 10671-11 5469-96 7098-448 8543-240 981-537 2533-661 3449-125 915-411 2105-636 2644-226 540-410 1250-410 1579 0 898-4173 2009-4854 1293z"/><path d="m79114 116097c-449-161-407-2408 55-3020 206-272 378-731 383-1020 4-289 237-1436 516-2550 508-2020 676-2962 1436-8017 1427-9498-332-14058-7375-19116-8233-5913-10358-9435-10390-17221-7-1773-147-3181-379-3825-202-561-374-1307-383-1658-83-3453-1573-1431-2819 3825-1229 5183 520 12169 4022 16064 1420 1580 1384 1679-941 2602-4073 1617-7379 5435-8257 9537-785 3668-981 5256-807 6553 97 730 267 2130 376 3112 302 2700 1015 7503 1309 8811 144 639 188 1356 97 1592-94 244 66 822 372 1339 1748 2964 270 3124-7879 852-1052-293-2314-617-2805-719-1872-390-11475-5928-11475-6617 0-120-488-538-1084-929-1916-1256-5530-4991-6493-6709-498-888-1051-1671-1230-1739-459-177-1951-2514-2636-4132-814-1920-1079-8699-462-11834 227-1155 598-3076 824-4268 877-4620 3387-10038 6402-13815 2827-3541 5171-6075 5621-6075 219 0 826-373 1349-829 2568-2240 5696-4526 6192-4526 209 0 789-171 1290-380 1241-519 1429-84 447 1034-432 492-785 1176-785 1522 0 353-496 1272-1130 2095-1128 1464-2937 4466-4727 7842-1019 1923-1793 4015-2310 6247-179 771-496 1919-706 2550-568 1716-757 9906-248 10736 207 336 521 1300 697 2142 424 2019 1880 5750 2754 7057 384 574 891 1344 1128 1711 237 366 542 794 678 949 136 156 503 787 816 1403s931 1464 1374 1885c442 420 1362 1453 2043 2295 7173 8856 8753 9284 5167 1402-2442-5365-3924-18848-3506-31875 138-4295 1416-9239 3625-14025 1010-2190 4281-6772 6825-9562 3224-3537 4135-5170 4298-7700 145-2265-60-2325-1367-397-1515 2237-4058 4778-5283 5280-591 243-1534 664-2095 936s-1594 611-2295 754c-5219 1061-7194 1730-12839 4347-1170 543-2300 987-2511 987s-688 325-1059 723c-372 398-1365 1310-2206 2026-842 717-2556 2279-3809 3471-2698 2567-2781 2561-2179-163 1063-4809 5211-9575 12597-14472 5580-3700 7033-4639 9966-6438 5080-3118 5853-3681 8108-5904 2240-2209 4297-5093 5111-7165 725-1844 1057-8713 497-10255-847-2328-133-2575 7509-2586 7044-11 7619 245 6294 2808-684 1322-138 7918 854 10332 1559 3791 4007 6684 8092 9562 1402 988 2836 2014 3187 2279 351 264 1269 827 2040 1249 1789 978 4439 2643 5381 3380 401 314 1545 1144 2541 1846 1823 1283 3188 2388 5939 4807 822 722 1768 1460 2104 1639 335 180 610 492 610 693s233 490 517 642c812 434 3336 3099 3613 3813 138 355 527 1594 865 2753 1133 3882 906 3986-2219 1019-4795-4552-6534-6059-6989-6059-439 0-2569-1213-3489-1987-623-525-4155-1755-7853-2736-8059-2138-9224-2816-12604-7326-969-1293-1424-1252-1410 128 23 2186 759 3490 4124 7302 7324 8298 10552 16593 10432 26804-156 13161-1534 24298-3472 28045-517 999-2418 6159-2422 6571-13 1498 5557-4063 8575-8561 783-1168 1585-2185 1781-2260 553-212 3047-4109 4148-6483 3962-8539 3111-19775-2151-28404-342-561-803-1409-1024-1884-416-892-677-1282-2726-4066-853-1160-1211-1888-1211-2468 0-451-229-1113-510-1470-877-1114-647-1484 510-822 351 200 905 368 1233 373 573 9 1856 908 5379 3770 906 737 1779 1339 1940 1339 869 0 6683 7154 8404 10342 479 887 990 1820 1136 2074 344 598 1616 4707 2315 7474 300 1192 658 2302 795 2467 533 642 740 9326 282 11816-588 3196-4726 9801-7359 11747-717 530-1807 1531-2423 2224-616 694-2152 1923-3414 2731-1263 808-2757 1786-3321 2174-1169 803-5076 2596-6684 3068-594 174-1258 514-1477 755-298 329-667 408-1485 315-852-96-1381 30-2427 577-803 420-1970 768-2918 870-868 93-1808 291-2088 441-281 149-654 220-829 157z"/><path d="m118235 85000c-93-93-174-753-179-1466-8-1194-278-3150-992-7196-266-1509-701-2661-2347-6213-651-1405-727-1767-495-2375 1340-3522-1050-13284-4878-19926-3736-6480-8725-11178-16524-15556-11037-6196-14222-9934-14715-17273-271-4036-4-4218 4386-2991 1544 432 3495 961 4337 1177 2107 539 2944 854 3751 1409 380 262 1298 685 2040 940 6071 2089 17266 12377 22367 20553 1312 2103 2541 4004 2729 4224 189 219 476 793 638 1275 162 481 446 1052 632 1269 571 664 2393 6286 3344 10317 1417 6003 1578 13417 440 20237-1063 6372-3507 12622-4534 11595z"/><path d="m16388 84091c-297-318-622-923-723-1343-101-421-438-1282-751-1913-2448-4950-4080-19490-2633-23460 230-631 500-1836 600-2677 521-4384 3393-11775 6300-16212 774-1182 1587-2501 1807-2932 219-431 575-930 791-1110 216-179 1025-1285 1797-2458 1444-2192 9092-10108 10872-11252 478-308 1673-1045 2655-1640 981-594 2014-1275 2295-1513 1843-1567 10803-5028 15537-6002 2723-559 2790-474 2614 3339-256 5553-2828 10291-6676 12297-421 220-1339 915-2040 1546-702 631-1677 1314-2168 1518-491 203-1129 588-1419 855-289 267-1743 1104-3230 1860-1488 755-3144 1713-3682 2128-1833 1415-4539 3255-5228 3555-378 165-863 639-1078 1053-214 414-557 818-762 896-2244 861-8047 12647-9062 18407-174 981-478 2530-678 3442-435 1990-466 4136-75 5218 251 694 193 980-472 2313-1848 3708-3097 8246-3360 12211-163 2443-385 2781-1231 1874z"/></g></svg>