<?xml version="1.0" standalone="no"?><!DOCTYPE svg PUBLIC "-//W3C//DTD SVG 1.1//EN" "http://www.w3.org/Graphics/SVG/1.1/DTD/svg11.dtd"><svg t="1706596963157" class="icon" viewBox="0 0 1024 1024" version="1.1" xmlns="http://www.w3.org/2000/svg" p-id="5062" xmlns:xlink="http://www.w3.org/1999/xlink" width="200" height="200"><path d="M933.635019 386.430542c0-40.014391-30.189886-70.101939-70.101939-70.101939H632.35019V135.393964c0-40.014391-30.189886-70.101939-70.101939-70.101939h-100.394163c-40.014391 0-70.101939 30.189886-70.101939 70.101939v180.934639H160.569258c-40.014391 0-70.101939 30.189886-70.101938 70.101939v100.394163c0 30.292225 18.318609 55.979212 46.6664 65.394364l3.581851 1.228063v269.86688c0 22.61683-4.912253 47.689786-10.131521 71.43234l-0.102339 0.614032-2.763142 5.628623c-1.944433 3.888867-1.944433 7.982411-1.944433 12.792324 0 24.868279 20.160704 45.028983 45.028982 45.028983h682.803118c4.707575 0 8.801119 0 12.792325-1.944434l0.409354-0.204677c12.280632-4.912253 20.979412-12.075954 27.426744-22.61683 5.321607-13.611033 6.140316-23.844893 2.456127-33.260044l-2.558465-5.116929-0.102339-0.307016c-7.163702-21.388767-10.336198-43.596242-10.336198-71.944034V553.447132l3.581851-1.228063c28.347791-9.415151 46.6664-35.102139 46.6664-65.394364v-100.394163zM707.671397 918.898261V737.963622c0-12.280632-7.675395-19.956026-19.956026-19.956027s-19.956026 7.675395-19.956027 19.956027v180.934639H531.956026V737.963622c0-12.280632-7.675395-19.956026-19.956026-19.956027s-19.956026 7.675395-19.956026 19.956027v180.934639H356.240656V737.963622c0-12.280632-7.675395-19.956026-19.956027-19.956027s-19.956026 7.675395-19.956026 19.956027v180.934639H162.206676l6.140316-12.280632c9.824505-27.222067 14.634419-54.444134 14.634419-83.303617V557.028983h663.051769v266.285029c0 28.859484 4.809914 56.081551 14.634419 83.303617l6.140316 12.280632H707.671397z m186.051569-431.971217c0 17.806916-12.485309 30.292225-30.292224 30.292224H160.569258c-17.806916 0-30.292225-12.485309-30.292224-30.292224v-100.394164c0-17.806916 12.485309-30.292225 30.292224-30.292224h270.992605V135.393964c0-17.806916 12.485309-30.292225 30.292225-30.292225h100.394163c17.806916 0 30.292225 12.485309 30.292225 30.292225V356.138317h270.992604c17.806916 0 30.292225 12.485309 30.292225 30.292225v100.496502z" fill="" p-id="5063"></path></svg>