<?xml version="1.0" standalone="no"?><!DOCTYPE svg PUBLIC "-//W3C//DTD SVG 1.1//EN" "http://www.w3.org/Graphics/SVG/1.1/DTD/svg11.dtd"><svg t="1706779313379" class="icon" viewBox="0 0 1024 1024" version="1.1" xmlns="http://www.w3.org/2000/svg" p-id="10563" xmlns:xlink="http://www.w3.org/1999/xlink" width="200" height="200"><path d="M498.688 102.4l-245.76 245.76 81.92 81.92 163.84-163.84 163.84 163.84 81.92-81.92-245.76-245.76z m0 655.36l-163.84-163.84-81.92 81.92 245.76 245.76 245.76-245.76-81.92-81.92-163.84 163.84zM580.608 512l-81.92-81.92-60.416 60.416-7.168 7.168-14.336 14.336 81.92 81.92 81.92-81.92zM89.088 512l81.92 81.92 81.92-81.92-81.92-81.92zM744.448 512l81.92 81.92 81.92-81.92-81.92-81.92z" fill="#4C5789" p-id="10564"></path></svg>