<?xml version="1.0" standalone="no"?><!DOCTYPE svg PUBLIC "-//W3C//DTD SVG 1.1//EN" "http://www.w3.org/Graphics/SVG/1.1/DTD/svg11.dtd"><svg t="1699268195044" class="icon" viewBox="0 0 1024 1024" version="1.1" xmlns="http://www.w3.org/2000/svg" p-id="26331" xmlns:xlink="http://www.w3.org/1999/xlink" width="200" height="200"><path d="M512 85.333333C277.333333 85.333333 85.333333 277.333333 85.333333 512s192 426.666667 426.666667 426.666667 426.666667-192 426.666667-426.666667S746.666667 85.333333 512 85.333333z m0 789.333334c-200.533333 0-362.666667-162.133333-362.666667-362.666667S311.466667 149.333333 512 149.333333s362.666667 162.133333 362.666667 362.666667-162.133333 362.666667-362.666667 362.666667z" p-id="26332"></path><path d="M640 531.2l-96 96V309.333333c0-17.066667-14.933333-32-32-32s-32 14.933333-32 32v317.866667L384 531.2c-12.8-12.8-32-12.8-44.8 0s-12.8 32 0 44.8l151.466667 151.466667c6.4 6.4 14.933333 8.533333 23.466666 8.533333s17.066667-2.133333 23.466667-8.533333l151.466667-151.466667c12.8-12.8 12.8-32 0-44.8s-36.266667-12.8-49.066667 0z" p-id="26333"></path></svg>