<?xml version="1.0" standalone="no"?><!DOCTYPE svg PUBLIC "-//W3C//DTD SVG 1.1//EN" "http://www.w3.org/Graphics/SVG/1.1/DTD/svg11.dtd"><svg t="1706857630493" class="icon" viewBox="0 0 1024 1024" version="1.1" xmlns="http://www.w3.org/2000/svg" p-id="12341" xmlns:xlink="http://www.w3.org/1999/xlink" width="200" height="200"><path d="M512 120a390.4 390.4 0 0 1 258.304 97.152h-46.528a28.032 28.032 0 0 0 0 56h112a28.096 28.096 0 0 0 27.968-28.032V133.12a28.032 28.032 0 0 0-56 0v42.304A448 448 0 0 0 64 512a28.032 28.032 0 0 0 56 0A392.064 392.064 0 0 1 512 120z m300.864 102.656h-5.952l6.4-6.4-0.448 6.4z m119.168 261.312a27.968 27.968 0 0 0-28.032 28.032A391.936 391.936 0 0 1 512 904a390.4 390.4 0 0 1-258.304-97.088h46.528a27.968 27.968 0 1 0 0-56h-112a28.096 28.096 0 0 0-27.968 28.032v112a28.032 28.032 0 0 0 56 0v-42.304A446.464 446.464 0 0 0 512 960a448 448 0 0 0 448-448 27.968 27.968 0 0 0-27.968-28.032zM216.256 806.912h6.4l-6.4 6.4v-6.4z m198.976-432.256l-32.192-45.888a224 224 0 1 0 257.792-0.064l-32.256 45.824a168 168 0 1 1-193.344 0.128zM512 539.968A28.096 28.096 0 0 0 540.032 512V288a28.032 28.032 0 0 0-56 0V512c0 15.424 12.544 27.968 27.968 27.968z" fill="#2c2c2c" p-id="12342"></path></svg>