<?xml version="1.0" standalone="no"?><!DOCTYPE svg PUBLIC "-//W3C//DTD SVG 1.1//EN" "http://www.w3.org/Graphics/SVG/1.1/DTD/svg11.dtd"><svg t="1706603159825" class="icon" viewBox="0 0 1024 1024" version="1.1" xmlns="http://www.w3.org/2000/svg" p-id="6109" xmlns:xlink="http://www.w3.org/1999/xlink" width="200" height="200"><path d="M513.3 105.4L309.9 309H165.7c-37.5 0-67.9 30.4-67.9 67.9v271.4c0 37.5 30.4 67.9 67.9 67.9h144.2l203.5 203.6c37.5 0 67.8-30.4 67.8-67.9V173.3c0-37.5-30.4-67.9-67.9-67.9z m0 744.1l-178-196.4H165.7V381.7h169.6l178-196.5v664.3z m402.2-307.2c6.7 0 12.1-13.3 12.1-29.8 0-16.4-5.4-29.8-12.1-29.8h-84.8c-6.7 0-12.1 13.3-12.1 29.8 0 16.4 5.4 29.8 12.1 29.8h84.8z m9.2-384.6c5.8-3.3 3.8-17.6-4.4-31.8s-19.6-23.1-25.4-19.7l-73.5 42.4c-5.8 3.3-3.8 17.6 4.4 31.8s19.6 23.1 25.4 19.7l73.5-42.4z m0 709.7c5.8 3.4 3.8 17.6-4.4 31.8s-19.6 23.1-25.4 19.7l-73.5-42.4c-5.8-3.4-3.8-17.6 4.4-31.8s19.6-23.1 25.4-19.7l73.5 42.4zM628.9 665c-6.1-16.3-4.4-31.7 11.9-37.8 41.1-19 60.8-55.9 65.8-102.3 5.9-54.1-20-103.8-64.7-124.2-14.6-9.4-20.7-25.7-11.3-40.3 9.4-14.6 25.7-20.7 40.3-11.3 66.2 38.4 105.8 105.2 97.4 182.5-6.7 61.8-44.3 120.2-101.7 145.3-13.3 7.6-31.3 2.6-37.7-11.9z m0 0" p-id="6110"></path></svg>